<svg width="224" height="50" viewBox="0 0 224 50" fill="none" xmlns="http://www.w3.org/2000/svg">
<path d="M13.3551 39.624C11.0931 39.624 8.88313 39.377 6.72513 38.883C4.59313 38.363 2.83812 37.674 1.46013 36.816L4.42413 30.108C5.72413 30.862 7.18013 31.473 8.79213 31.941C10.4041 32.383 11.9511 32.604 13.4331 32.604C14.7071 32.604 15.6171 32.487 16.1631 32.253C16.7091 31.993 16.9821 31.616 16.9821 31.122C16.9821 30.55 16.6181 30.121 15.8901 29.835C15.1881 29.549 14.0181 29.237 12.3801 28.899C10.2741 28.457 8.51913 27.989 7.11513 27.495C5.71113 26.975 4.48913 26.143 3.44913 24.999C2.40913 23.829 1.88913 22.256 1.88913 20.28C1.88913 18.564 2.37013 17.004 3.33213 15.6C4.29413 14.196 5.72413 13.091 7.62213 12.285C9.54613 11.479 11.8731 11.076 14.6031 11.076C16.4751 11.076 18.3081 11.284 20.1021 11.7C21.9221 12.09 23.5211 12.675 24.8991 13.455L22.1301 20.124C19.4521 18.772 16.9171 18.096 14.5251 18.096C12.1591 18.096 10.9761 18.668 10.9761 19.812C10.9761 20.358 11.3271 20.774 12.0291 21.06C12.7311 21.32 13.8881 21.606 15.5001 21.918C17.5801 22.308 19.3351 22.763 20.7651 23.283C22.1951 23.777 23.4301 24.596 24.4701 25.74C25.5361 26.884 26.0691 28.444 26.0691 30.42C26.0691 32.136 25.5881 33.696 24.6261 35.1C23.6641 36.478 22.2211 37.583 20.2971 38.415C18.3991 39.221 16.0851 39.624 13.3551 39.624ZM28.535 17.667H37.349V39H28.535V17.667ZM32.942 15.951C31.356 15.951 30.069 15.535 29.081 14.703C28.119 13.845 27.638 12.766 27.638 11.466C27.638 10.166 28.119 9.1 29.081 8.268C30.069 7.41 31.356 6.981 32.942 6.981C34.554 6.981 35.841 7.384 36.803 8.19C37.765 8.996 38.246 10.036 38.246 11.31C38.246 12.662 37.765 13.78 36.803 14.664C35.841 15.522 34.554 15.951 32.942 15.951ZM65.0847 17.667V34.749C65.0847 38.805 63.9537 41.847 61.6917 43.875C59.4557 45.929 56.2577 46.956 52.0977 46.956C49.9657 46.956 47.9767 46.722 46.1307 46.254C44.2847 45.812 42.7117 45.162 41.4117 44.304L44.3757 38.298C45.2077 38.922 46.2607 39.429 47.5347 39.819C48.8087 40.209 50.0307 40.404 51.2007 40.404C52.9687 40.404 54.2557 40.027 55.0617 39.273C55.8677 38.519 56.2707 37.414 56.2707 35.958V35.568C54.9447 37.076 52.9817 37.83 50.3817 37.83C48.5617 37.83 46.8587 37.414 45.2727 36.582C43.7127 35.724 42.4647 34.515 41.5287 32.955C40.5927 31.369 40.1247 29.562 40.1247 27.534C40.1247 25.506 40.5927 23.712 41.5287 22.152C42.4647 20.592 43.7127 19.396 45.2727 18.564C46.8587 17.706 48.5617 17.277 50.3817 17.277C53.2937 17.277 55.3997 18.213 56.6997 20.085V17.667H65.0847ZM52.7217 30.966C53.7617 30.966 54.6197 30.654 55.2957 30.03C55.9977 29.38 56.3487 28.548 56.3487 27.534C56.3487 26.52 55.9977 25.701 55.2957 25.077C54.6197 24.453 53.7617 24.141 52.7217 24.141C51.6557 24.141 50.7717 24.453 50.0697 25.077C49.3937 25.701 49.0557 26.52 49.0557 27.534C49.0557 28.548 49.4067 29.38 50.1087 30.03C50.8107 30.654 51.6817 30.966 52.7217 30.966ZM83.8022 17.277C86.4282 17.277 88.5342 18.07 90.1202 19.656C91.7322 21.242 92.5382 23.634 92.5382 26.832V39H83.7242V28.353C83.7242 25.909 82.8532 24.687 81.1112 24.687C80.1232 24.687 79.3172 25.038 78.6932 25.74C78.0952 26.416 77.7962 27.495 77.7962 28.977V39H68.9822V17.667H77.3672V19.773C78.1992 18.941 79.1612 18.317 80.2532 17.901C81.3452 17.485 82.5282 17.277 83.8022 17.277ZM106.818 39.624C104.556 39.624 102.346 39.377 100.188 38.883C98.056 38.363 96.301 37.674 94.923 36.816L97.887 30.108C99.187 30.862 100.643 31.473 102.255 31.941C103.867 32.383 105.414 32.604 106.896 32.604C108.17 32.604 109.08 32.487 109.626 32.253C110.172 31.993 110.445 31.616 110.445 31.122C110.445 30.55 110.081 30.121 109.353 29.835C108.651 29.549 107.481 29.237 105.843 28.899C103.737 28.457 101.982 27.989 100.578 27.495C99.174 26.975 97.952 26.143 96.912 24.999C95.872 23.829 95.352 22.256 95.352 20.28C95.352 18.564 95.833 17.004 96.795 15.6C97.757 14.196 99.187 13.091 101.085 12.285C103.009 11.479 105.336 11.076 108.066 11.076C109.938 11.076 111.771 11.284 113.565 11.7C115.385 12.09 116.984 12.675 118.362 13.455L115.593 20.124C112.915 18.772 110.38 18.096 107.988 18.096C105.622 18.096 104.439 18.668 104.439 19.812C104.439 20.358 104.79 20.774 105.492 21.06C106.194 21.32 107.351 21.606 108.963 21.918C111.043 22.308 112.798 22.763 114.228 23.283C115.658 23.777 116.893 24.596 117.933 25.74C118.999 26.884 119.532 28.444 119.532 30.42C119.532 32.136 119.051 33.696 118.089 35.1C117.127 36.478 115.684 37.583 113.76 38.415C111.862 39.221 109.548 39.624 106.818 39.624ZM134.049 32.877C134.985 32.877 135.765 32.76 136.389 32.526C137.039 32.292 137.741 31.889 138.495 31.317L143.097 35.958C140.965 38.246 137.858 39.39 133.776 39.39C131.202 39.39 128.94 38.922 126.99 37.986C125.04 37.024 123.532 35.698 122.466 34.008C121.4 32.318 120.867 30.42 120.867 28.314C120.867 26.182 121.4 24.284 122.466 22.62C123.532 20.93 124.988 19.617 126.834 18.681C128.706 17.745 130.799 17.277 133.113 17.277C135.219 17.277 137.156 17.706 138.924 18.564C140.692 19.396 142.096 20.644 143.136 22.308C144.176 23.946 144.696 25.909 144.696 28.197L130.11 31.005C130.76 32.253 132.073 32.877 134.049 32.877ZM133.152 23.283C132.138 23.283 131.306 23.582 130.656 24.18C130.032 24.778 129.655 25.662 129.525 26.832L136.35 25.506C136.116 24.83 135.713 24.297 135.141 23.907C134.595 23.491 133.932 23.283 133.152 23.283ZM162.297 17.277C164.923 17.277 167.029 18.07 168.615 19.656C170.227 21.242 171.033 23.634 171.033 26.832V39H162.219V28.353C162.219 25.909 161.348 24.687 159.606 24.687C158.618 24.687 157.812 25.038 157.188 25.74C156.59 26.416 156.291 27.495 156.291 28.977V39H147.477V17.667H155.862V19.773C156.694 18.941 157.656 18.317 158.748 17.901C159.84 17.485 161.023 17.277 162.297 17.277ZM183.207 39.39C181.387 39.39 179.593 39.195 177.825 38.805C176.057 38.415 174.627 37.908 173.535 37.284L175.953 31.473C176.941 32.071 178.111 32.539 179.463 32.877C180.815 33.215 182.128 33.384 183.402 33.384C184.416 33.384 185.118 33.306 185.508 33.15C185.924 32.968 186.132 32.708 186.132 32.37C186.132 32.032 185.872 31.798 185.352 31.668C184.858 31.538 184.039 31.408 182.895 31.278C181.153 31.07 179.671 30.81 178.449 30.498C177.227 30.16 176.148 29.523 175.212 28.587C174.302 27.651 173.847 26.312 173.847 24.57C173.847 23.192 174.263 21.957 175.095 20.865C175.927 19.773 177.162 18.902 178.8 18.252C180.464 17.602 182.453 17.277 184.767 17.277C186.379 17.277 187.952 17.433 189.486 17.745C191.046 18.031 192.372 18.46 193.464 19.032L191.046 24.843C189.174 23.803 187.12 23.283 184.884 23.283C182.96 23.283 181.998 23.621 181.998 24.297C181.998 24.635 182.258 24.882 182.778 25.038C183.298 25.168 184.117 25.298 185.235 25.428C186.977 25.636 188.446 25.909 189.642 26.247C190.864 26.585 191.93 27.222 192.84 28.158C193.776 29.094 194.244 30.433 194.244 32.175C194.244 33.501 193.828 34.71 192.996 35.802C192.164 36.894 190.916 37.765 189.252 38.415C187.588 39.065 185.573 39.39 183.207 39.39ZM208.964 32.877C209.9 32.877 210.68 32.76 211.304 32.526C211.954 32.292 212.656 31.889 213.41 31.317L218.012 35.958C215.88 38.246 212.773 39.39 208.691 39.39C206.117 39.39 203.855 38.922 201.905 37.986C199.955 37.024 198.447 35.698 197.381 34.008C196.315 32.318 195.782 30.42 195.782 28.314C195.782 26.182 196.315 24.284 197.381 22.62C198.447 20.93 199.903 19.617 201.749 18.681C203.621 17.745 205.714 17.277 208.028 17.277C210.134 17.277 212.071 17.706 213.839 18.564C215.607 19.396 217.011 20.644 218.051 22.308C219.091 23.946 219.611 25.909 219.611 28.197L205.025 31.005C205.675 32.253 206.988 32.877 208.964 32.877ZM208.067 23.283C207.053 23.283 206.221 23.582 205.571 24.18C204.947 24.778 204.57 25.662 204.44 26.832L211.265 25.506C211.031 24.83 210.628 24.297 210.056 23.907C209.51 23.491 208.847 23.283 208.067 23.283Z" fill="#004A99"/>
<path d="M12.402 38.624C10.14 38.624 7.93 38.377 5.772 37.883C3.64 37.363 1.885 36.674 0.507 35.816L3.471 29.108C4.771 29.862 6.227 30.473 7.839 30.941C9.451 31.383 10.998 31.604 12.48 31.604C13.754 31.604 14.664 31.487 15.21 31.253C15.756 30.993 16.029 30.616 16.029 30.122C16.029 29.55 15.665 29.121 14.937 28.835C14.235 28.549 13.065 28.237 11.427 27.899C9.321 27.457 7.566 26.989 6.162 26.495C4.758 25.975 3.536 25.143 2.496 23.999C1.456 22.829 0.936 21.256 0.936 19.28C0.936 17.564 1.417 16.004 2.379 14.6C3.341 13.196 4.771 12.091 6.669 11.285C8.593 10.479 10.92 10.076 13.65 10.076C15.522 10.076 17.355 10.284 19.149 10.7C20.969 11.09 22.568 11.675 23.946 12.455L21.177 19.124C18.499 17.772 15.964 17.096 13.572 17.096C11.206 17.096 10.023 17.668 10.023 18.812C10.023 19.358 10.374 19.774 11.076 20.06C11.778 20.32 12.935 20.606 14.547 20.918C16.627 21.308 18.382 21.763 19.812 22.283C21.242 22.777 22.477 23.596 23.517 24.74C24.583 25.884 25.116 27.444 25.116 29.42C25.116 31.136 24.635 32.696 23.673 34.1C22.711 35.478 21.268 36.583 19.344 37.415C17.446 38.221 15.132 38.624 12.402 38.624ZM27.5818 16.667H36.3958V38H27.5818V16.667ZM31.9888 14.951C30.4028 14.951 29.1158 14.535 28.1278 13.703C27.1658 12.845 26.6848 11.766 26.6848 10.466C26.6848 9.166 27.1658 8.1 28.1278 7.268C29.1158 6.41 30.4028 5.981 31.9888 5.981C33.6008 5.981 34.8878 6.384 35.8498 7.19C36.8118 7.996 37.2928 9.036 37.2928 10.31C37.2928 11.662 36.8118 12.78 35.8498 13.664C34.8878 14.522 33.6008 14.951 31.9888 14.951ZM64.1315 16.667V33.749C64.1315 37.805 63.0005 40.847 60.7385 42.875C58.5025 44.929 55.3045 45.956 51.1445 45.956C49.0125 45.956 47.0235 45.722 45.1775 45.254C43.3315 44.812 41.7585 44.162 40.4585 43.304L43.4225 37.298C44.2545 37.922 45.3075 38.429 46.5815 38.819C47.8555 39.209 49.0775 39.404 50.2475 39.404C52.0155 39.404 53.3025 39.027 54.1085 38.273C54.9145 37.519 55.3175 36.414 55.3175 34.958V34.568C53.9915 36.076 52.0285 36.83 49.4285 36.83C47.6085 36.83 45.9055 36.414 44.3195 35.582C42.7595 34.724 41.5115 33.515 40.5755 31.955C39.6395 30.369 39.1715 28.562 39.1715 26.534C39.1715 24.506 39.6395 22.712 40.5755 21.152C41.5115 19.592 42.7595 18.396 44.3195 17.564C45.9055 16.706 47.6085 16.277 49.4285 16.277C52.3405 16.277 54.4465 17.213 55.7465 19.085V16.667H64.1315ZM51.7685 29.966C52.8085 29.966 53.6665 29.654 54.3425 29.03C55.0445 28.38 55.3955 27.548 55.3955 26.534C55.3955 25.52 55.0445 24.701 54.3425 24.077C53.6665 23.453 52.8085 23.141 51.7685 23.141C50.7025 23.141 49.8185 23.453 49.1165 24.077C48.4405 24.701 48.1025 25.52 48.1025 26.534C48.1025 27.548 48.4535 28.38 49.1555 29.03C49.8575 29.654 50.7285 29.966 51.7685 29.966ZM82.8491 16.277C85.4751 16.277 87.5811 17.07 89.1671 18.656C90.7791 20.242 91.5851 22.634 91.5851 25.832V38H82.7711V27.353C82.7711 24.909 81.9001 23.687 80.1581 23.687C79.1701 23.687 78.3641 24.038 77.7401 24.74C77.1421 25.416 76.8431 26.495 76.8431 27.977V38H68.0291V16.667H76.4141V18.773C77.2461 17.941 78.2081 17.317 79.3001 16.901C80.3921 16.485 81.5751 16.277 82.8491 16.277ZM105.865 38.624C103.603 38.624 101.393 38.377 99.2349 37.883C97.1029 37.363 95.3479 36.674 93.9699 35.816L96.9339 29.108C98.2339 29.862 99.6899 30.473 101.302 30.941C102.914 31.383 104.461 31.604 105.943 31.604C107.217 31.604 108.127 31.487 108.673 31.253C109.219 30.993 109.492 30.616 109.492 30.122C109.492 29.55 109.128 29.121 108.4 28.835C107.698 28.549 106.528 28.237 104.89 27.899C102.784 27.457 101.029 26.989 99.6249 26.495C98.2209 25.975 96.9989 25.143 95.9589 23.999C94.9189 22.829 94.3989 21.256 94.3989 19.28C94.3989 17.564 94.8799 16.004 95.8419 14.6C96.8039 13.196 98.2339 12.091 100.132 11.285C102.056 10.479 104.383 10.076 107.113 10.076C108.985 10.076 110.818 10.284 112.612 10.7C114.432 11.09 116.031 11.675 117.409 12.455L114.64 19.124C111.962 17.772 109.427 17.096 107.035 17.096C104.669 17.096 103.486 17.668 103.486 18.812C103.486 19.358 103.837 19.774 104.539 20.06C105.241 20.32 106.398 20.606 108.01 20.918C110.09 21.308 111.845 21.763 113.275 22.283C114.705 22.777 115.94 23.596 116.98 24.74C118.046 25.884 118.579 27.444 118.579 29.42C118.579 31.136 118.098 32.696 117.136 34.1C116.174 35.478 114.731 36.583 112.807 37.415C110.909 38.221 108.595 38.624 105.865 38.624ZM133.096 31.877C134.032 31.877 134.812 31.76 135.436 31.526C136.086 31.292 136.788 30.889 137.542 30.317L142.144 34.958C140.012 37.246 136.905 38.39 132.823 38.39C130.249 38.39 127.987 37.922 126.037 36.986C124.087 36.024 122.579 34.698 121.513 33.008C120.447 31.318 119.914 29.42 119.914 27.314C119.914 25.182 120.447 23.284 121.513 21.62C122.579 19.93 124.035 18.617 125.881 17.681C127.753 16.745 129.846 16.277 132.16 16.277C134.266 16.277 136.203 16.706 137.971 17.564C139.739 18.396 141.143 19.644 142.183 21.308C143.223 22.946 143.743 24.909 143.743 27.197L129.157 30.005C129.807 31.253 131.12 31.877 133.096 31.877ZM132.199 22.283C131.185 22.283 130.353 22.582 129.703 23.18C129.079 23.778 128.702 24.662 128.572 25.832L135.397 24.506C135.163 23.83 134.76 23.297 134.188 22.907C133.642 22.491 132.979 22.283 132.199 22.283ZM161.344 16.277C163.97 16.277 166.076 17.07 167.662 18.656C169.274 20.242 170.08 22.634 170.08 25.832V38H161.266V27.353C161.266 24.909 160.395 23.687 158.653 23.687C157.665 23.687 156.859 24.038 156.235 24.74C155.637 25.416 155.338 26.495 155.338 27.977V38H146.524V16.667H154.909V18.773C155.741 17.941 156.703 17.317 157.795 16.901C158.887 16.485 160.07 16.277 161.344 16.277ZM182.254 38.39C180.434 38.39 178.64 38.195 176.872 37.805C175.104 37.415 173.674 36.908 172.582 36.284L175 30.473C175.988 31.071 177.158 31.539 178.51 31.877C179.862 32.215 181.175 32.384 182.449 32.384C183.463 32.384 184.165 32.306 184.555 32.15C184.971 31.968 185.179 31.708 185.179 31.37C185.179 31.032 184.919 30.798 184.399 30.668C183.905 30.538 183.086 30.408 181.942 30.278C180.2 30.07 178.718 29.81 177.496 29.498C176.274 29.16 175.195 28.523 174.259 27.587C173.349 26.651 172.894 25.312 172.894 23.57C172.894 22.192 173.31 20.957 174.142 19.865C174.974 18.773 176.209 17.902 177.847 17.252C179.511 16.602 181.5 16.277 183.814 16.277C185.426 16.277 186.999 16.433 188.533 16.745C190.093 17.031 191.419 17.46 192.511 18.032L190.093 23.843C188.221 22.803 186.167 22.283 183.931 22.283C182.007 22.283 181.045 22.621 181.045 23.297C181.045 23.635 181.305 23.882 181.825 24.038C182.345 24.168 183.164 24.298 184.282 24.428C186.024 24.636 187.493 24.909 188.689 25.247C189.911 25.585 190.977 26.222 191.887 27.158C192.823 28.094 193.291 29.433 193.291 31.175C193.291 32.501 192.875 33.71 192.043 34.802C191.211 35.894 189.963 36.765 188.299 37.415C186.635 38.065 184.62 38.39 182.254 38.39ZM208.011 31.877C208.947 31.877 209.727 31.76 210.351 31.526C211.001 31.292 211.703 30.889 212.457 30.317L217.059 34.958C214.927 37.246 211.82 38.39 207.738 38.39C205.164 38.39 202.902 37.922 200.952 36.986C199.002 36.024 197.494 34.698 196.428 33.008C195.362 31.318 194.829 29.42 194.829 27.314C194.829 25.182 195.362 23.284 196.428 21.62C197.494 19.93 198.95 18.617 200.796 17.681C202.668 16.745 204.761 16.277 207.075 16.277C209.181 16.277 211.118 16.706 212.886 17.564C214.654 18.396 216.058 19.644 217.098 21.308C218.138 22.946 218.658 24.909 218.658 27.197L204.072 30.005C204.722 31.253 206.035 31.877 208.011 31.877ZM207.114 22.283C206.1 22.283 205.268 22.582 204.618 23.18C203.994 23.778 203.617 24.662 203.487 25.832L210.312 24.506C210.078 23.83 209.675 23.297 209.103 22.907C208.557 22.491 207.894 22.283 207.114 22.283Z" fill="#007BFF"/>
</svg>
