<svg width="222" height="25" viewBox="0 0 222 25" fill="none" xmlns="http://www.w3.org/2000/svg">
<g clip-path="url(#clip0_229_530)">
<path d="M17.928 13.928H16.464V20H10.944V13.928H9.432L6.648 20H0.144L4.656 11.168L0.384 3.2H6.288L9.288 9.464H10.944V3.2H16.464V9.464H18.024L21.072 3.2H26.976L22.728 11.168L27.216 20H20.712L17.928 13.928ZM35.241 16.232C35.817 16.232 36.297 16.16 36.681 16.016C37.081 15.872 37.513 15.624 37.977 15.272L40.809 18.128C39.497 19.536 37.585 20.24 35.073 20.24C33.489 20.24 32.097 19.952 30.897 19.376C29.697 18.784 28.769 17.968 28.113 16.928C27.457 15.888 27.129 14.72 27.129 13.424C27.129 12.112 27.457 10.944 28.113 9.92C28.769 8.88 29.665 8.072 30.801 7.496C31.953 6.92 33.241 6.632 34.665 6.632C35.961 6.632 37.153 6.896 38.241 7.424C39.329 7.936 40.193 8.704 40.833 9.728C41.473 10.736 41.793 11.944 41.793 13.352L32.817 15.08C33.217 15.848 34.025 16.232 35.241 16.232ZM34.689 10.328C34.065 10.328 33.553 10.512 33.153 10.88C32.769 11.248 32.537 11.792 32.457 12.512L36.657 11.696C36.513 11.28 36.265 10.952 35.913 10.712C35.577 10.456 35.169 10.328 34.689 10.328ZM50.4647 20.24C48.9767 20.24 47.6407 19.952 46.4567 19.376C45.2887 18.8 44.3687 17.992 43.6967 16.952C43.0407 15.912 42.7127 14.736 42.7127 13.424C42.7127 12.112 43.0407 10.944 43.6967 9.92C44.3687 8.88 45.2887 8.072 46.4567 7.496C47.6407 6.92 48.9767 6.632 50.4647 6.632C52.0647 6.632 53.4327 6.976 54.5687 7.664C55.7047 8.352 56.4887 9.304 56.9207 10.52L52.7207 12.584C52.2087 11.432 51.4487 10.856 50.4407 10.856C49.8007 10.856 49.2647 11.08 48.8327 11.528C48.4167 11.976 48.2087 12.608 48.2087 13.424C48.2087 14.256 48.4167 14.896 48.8327 15.344C49.2647 15.792 49.8007 16.016 50.4407 16.016C51.4487 16.016 52.2087 15.44 52.7207 14.288L56.9207 16.352C56.4887 17.568 55.7047 18.52 54.5687 19.208C53.4327 19.896 52.0647 20.24 50.4647 20.24ZM75.7886 6.632C77.3726 6.632 78.6366 7.12 79.5806 8.096C80.5406 9.072 81.0206 10.544 81.0206 12.512V20H75.5966V13.448C75.5966 11.944 75.1086 11.192 74.1326 11.192C73.6206 11.192 73.2046 11.384 72.8846 11.768C72.5806 12.152 72.4286 12.76 72.4286 13.592V20H67.0046V13.448C67.0046 11.944 66.5166 11.192 65.5406 11.192C65.0286 11.192 64.6126 11.384 64.2926 11.768C63.9886 12.152 63.8366 12.76 63.8366 13.592V20H58.4126V6.872H63.5726V8.096C64.5486 7.12 65.7886 6.632 67.2926 6.632C68.1726 6.632 68.9646 6.8 69.6686 7.136C70.3726 7.456 70.9486 7.952 71.3966 8.624C71.9246 7.984 72.5646 7.496 73.3166 7.16C74.0686 6.808 74.8926 6.632 75.7886 6.632ZM97.3678 6.872V20H92.2078V18.752C91.7278 19.248 91.1678 19.624 90.5278 19.88C89.8878 20.12 89.2078 20.24 88.4878 20.24C86.8238 20.24 85.4878 19.736 84.4798 18.728C83.4718 17.704 82.9678 16.168 82.9678 14.12V6.872H88.3918V13.184C88.3918 14.08 88.5358 14.72 88.8238 15.104C89.1118 15.488 89.5358 15.68 90.0958 15.68C90.6238 15.68 91.0638 15.472 91.4158 15.056C91.7678 14.624 91.9438 13.952 91.9438 13.04V6.872H97.3678ZM106.376 15.632H105.344V20H99.9204V6.872H105.344V11.48H106.52L109.4 6.872H115.112L110.888 13.16L115.376 20H108.992L106.376 15.632ZM130.63 6.872V17.384C130.63 19.88 129.934 21.752 128.542 23C127.166 24.264 125.214 24.896 122.686 24.896C121.39 24.896 120.174 24.752 119.038 24.464C117.918 24.192 116.958 23.792 116.158 23.264L117.982 19.568C118.494 19.952 119.134 20.264 119.902 20.504C120.686 20.744 121.43 20.864 122.134 20.864C123.206 20.864 123.982 20.632 124.462 20.168C124.958 19.704 125.206 19.024 125.206 18.128V18.032C124.262 18.864 123.11 19.28 121.75 19.28C120.086 19.28 118.75 18.776 117.742 17.768C116.734 16.744 116.23 15.208 116.23 13.16V6.872H121.654V12.224C121.654 13.12 121.798 13.76 122.086 14.144C122.374 14.528 122.798 14.72 123.358 14.72C123.886 14.72 124.326 14.512 124.678 14.096C125.03 13.664 125.206 12.992 125.206 12.08V6.872H130.63ZM140.428 6.632C142.668 6.632 144.428 7.24 145.708 8.456C146.988 9.656 147.628 11.32 147.628 13.448C147.628 14.808 147.364 16 146.836 17.024C146.308 18.048 145.556 18.84 144.58 19.4C143.62 19.96 142.508 20.24 141.244 20.24C140.556 20.24 139.956 20.152 139.444 19.976C138.932 19.784 138.484 19.488 138.1 19.088V24.656H132.676V13.496C132.676 12.12 132.996 10.912 133.636 9.872C134.276 8.832 135.18 8.032 136.348 7.472C137.516 6.912 138.876 6.632 140.428 6.632ZM140.14 16.016C140.796 16.016 141.316 15.792 141.7 15.344C142.084 14.88 142.276 14.248 142.276 13.448C142.276 12.664 142.084 12.04 141.7 11.576C141.316 11.096 140.796 10.856 140.14 10.856C139.484 10.856 138.964 11.096 138.58 11.576C138.196 12.04 138.004 12.664 138.004 13.448C138.004 14.248 138.196 14.88 138.58 15.344C138.964 15.792 139.484 16.016 140.14 16.016ZM163.702 6.872V20H158.542V18.92C157.758 19.8 156.558 20.24 154.942 20.24C153.79 20.24 152.726 19.968 151.75 19.424C150.79 18.864 150.022 18.064 149.446 17.024C148.886 15.984 148.606 14.784 148.606 13.424C148.606 12.064 148.886 10.872 149.446 9.848C150.022 8.808 150.79 8.016 151.75 7.472C152.726 6.912 153.79 6.632 154.942 6.632C156.398 6.632 157.51 7.008 158.278 7.76V6.872H163.702ZM156.238 16.016C156.862 16.016 157.374 15.792 157.774 15.344C158.174 14.88 158.374 14.24 158.374 13.424C158.374 12.608 158.174 11.976 157.774 11.528C157.374 11.08 156.862 10.856 156.238 10.856C155.614 10.856 155.102 11.08 154.702 11.528C154.302 11.976 154.102 12.608 154.102 13.424C154.102 14.24 154.302 14.88 154.702 15.344C155.102 15.792 155.614 16.016 156.238 16.016ZM183.554 6.632C185.138 6.632 186.402 7.12 187.346 8.096C188.306 9.072 188.786 10.544 188.786 12.512V20H183.362V13.448C183.362 11.944 182.874 11.192 181.898 11.192C181.386 11.192 180.97 11.384 180.65 11.768C180.346 12.152 180.194 12.76 180.194 13.592V20H174.77V13.448C174.77 11.944 174.282 11.192 173.306 11.192C172.794 11.192 172.378 11.384 172.058 11.768C171.754 12.152 171.602 12.76 171.602 13.592V20H166.178V6.872H171.338V8.096C172.314 7.12 173.554 6.632 175.058 6.632C175.938 6.632 176.73 6.8 177.434 7.136C178.138 7.456 178.714 7.952 179.162 8.624C179.69 7.984 180.33 7.496 181.082 7.16C181.834 6.808 182.658 6.632 183.554 6.632ZM197.813 20.24C196.357 20.24 195.045 19.952 193.877 19.376C192.725 18.784 191.821 17.976 191.165 16.952C190.509 15.912 190.181 14.736 190.181 13.424C190.181 12.112 190.509 10.944 191.165 9.92C191.821 8.88 192.725 8.072 193.877 7.496C195.045 6.92 196.357 6.632 197.813 6.632C199.285 6.632 200.597 6.92 201.749 7.496C202.917 8.072 203.821 8.88 204.461 9.92C205.117 10.944 205.445 12.112 205.445 13.424C205.445 14.736 205.117 15.912 204.461 16.952C203.821 17.976 202.917 18.784 201.749 19.376C200.597 19.952 199.285 20.24 197.813 20.24ZM197.813 16.016C198.437 16.016 198.949 15.792 199.349 15.344C199.749 14.88 199.949 14.24 199.949 13.424C199.949 12.608 199.749 11.976 199.349 11.528C198.949 11.08 198.437 10.856 197.813 10.856C197.189 10.856 196.677 11.08 196.277 11.528C195.877 11.976 195.677 12.608 195.677 13.424C195.677 14.24 195.877 14.88 196.277 15.344C196.677 15.792 197.189 16.016 197.813 16.016ZM214.444 6.632C216.684 6.632 218.444 7.24 219.724 8.456C221.004 9.656 221.644 11.32 221.644 13.448C221.644 14.808 221.38 16 220.852 17.024C220.324 18.048 219.572 18.84 218.596 19.4C217.636 19.96 216.524 20.24 215.26 20.24C214.572 20.24 213.972 20.152 213.46 19.976C212.948 19.784 212.5 19.488 212.116 19.088V24.656H206.692V13.496C206.692 12.12 207.012 10.912 207.652 9.872C208.292 8.832 209.196 8.032 210.364 7.472C211.532 6.912 212.892 6.632 214.444 6.632ZM214.156 16.016C214.812 16.016 215.332 15.792 215.716 15.344C216.1 14.88 216.292 14.248 216.292 13.448C216.292 12.664 216.1 12.04 215.716 11.576C215.332 11.096 214.812 10.856 214.156 10.856C213.5 10.856 212.98 11.096 212.596 11.576C212.212 12.04 212.02 12.664 212.02 13.448C212.02 14.248 212.212 14.88 212.596 15.344C212.98 15.792 213.5 16.016 214.156 16.016Z" fill="#004A99"/>
<path d="M17.928 13.428H16.464V19.5H10.944V13.428H9.432L6.648 19.5H0.144L4.656 10.668L0.384 2.7H6.288L9.288 8.964H10.944V2.7H16.464V8.964H18.024L21.072 2.7H26.976L22.728 10.668L27.216 19.5H20.712L17.928 13.428ZM35.241 15.732C35.817 15.732 36.297 15.66 36.681 15.516C37.081 15.372 37.513 15.124 37.977 14.772L40.809 17.628C39.497 19.036 37.585 19.74 35.073 19.74C33.489 19.74 32.097 19.452 30.897 18.876C29.697 18.284 28.769 17.468 28.113 16.428C27.457 15.388 27.129 14.22 27.129 12.924C27.129 11.612 27.457 10.444 28.113 9.42C28.769 8.38 29.665 7.572 30.801 6.996C31.953 6.42 33.241 6.132 34.665 6.132C35.961 6.132 37.153 6.396 38.241 6.924C39.329 7.436 40.193 8.204 40.833 9.228C41.473 10.236 41.793 11.444 41.793 12.852L32.817 14.58C33.217 15.348 34.025 15.732 35.241 15.732ZM34.689 9.828C34.065 9.828 33.553 10.012 33.153 10.38C32.769 10.748 32.537 11.292 32.457 12.012L36.657 11.196C36.513 10.78 36.265 10.452 35.913 10.212C35.577 9.956 35.169 9.828 34.689 9.828ZM50.4647 19.74C48.9767 19.74 47.6407 19.452 46.4567 18.876C45.2887 18.3 44.3687 17.492 43.6967 16.452C43.0407 15.412 42.7127 14.236 42.7127 12.924C42.7127 11.612 43.0407 10.444 43.6967 9.42C44.3687 8.38 45.2887 7.572 46.4567 6.996C47.6407 6.42 48.9767 6.132 50.4647 6.132C52.0647 6.132 53.4327 6.476 54.5687 7.164C55.7047 7.852 56.4887 8.804 56.9207 10.02L52.7207 12.084C52.2087 10.932 51.4487 10.356 50.4407 10.356C49.8007 10.356 49.2647 10.58 48.8327 11.028C48.4167 11.476 48.2087 12.108 48.2087 12.924C48.2087 13.756 48.4167 14.396 48.8327 14.844C49.2647 15.292 49.8007 15.516 50.4407 15.516C51.4487 15.516 52.2087 14.94 52.7207 13.788L56.9207 15.852C56.4887 17.068 55.7047 18.02 54.5687 18.708C53.4327 19.396 52.0647 19.74 50.4647 19.74ZM75.7886 6.132C77.3726 6.132 78.6366 6.62 79.5806 7.596C80.5406 8.572 81.0206 10.044 81.0206 12.012V19.5H75.5966V12.948C75.5966 11.444 75.1086 10.692 74.1326 10.692C73.6206 10.692 73.2046 10.884 72.8846 11.268C72.5806 11.652 72.4286 12.26 72.4286 13.092V19.5H67.0046V12.948C67.0046 11.444 66.5166 10.692 65.5406 10.692C65.0286 10.692 64.6126 10.884 64.2926 11.268C63.9886 11.652 63.8366 12.26 63.8366 13.092V19.5H58.4126V6.372H63.5726V7.596C64.5486 6.62 65.7886 6.132 67.2926 6.132C68.1726 6.132 68.9646 6.3 69.6686 6.636C70.3726 6.956 70.9486 7.452 71.3966 8.124C71.9246 7.484 72.5646 6.996 73.3166 6.66C74.0686 6.308 74.8926 6.132 75.7886 6.132ZM97.3678 6.372V19.5H92.2078V18.252C91.7278 18.748 91.1678 19.124 90.5278 19.38C89.8878 19.62 89.2078 19.74 88.4878 19.74C86.8238 19.74 85.4878 19.236 84.4798 18.228C83.4718 17.204 82.9678 15.668 82.9678 13.62V6.372H88.3918V12.684C88.3918 13.58 88.5358 14.22 88.8238 14.604C89.1118 14.988 89.5358 15.18 90.0958 15.18C90.6238 15.18 91.0638 14.972 91.4158 14.556C91.7678 14.124 91.9438 13.452 91.9438 12.54V6.372H97.3678ZM106.376 15.132H105.344V19.5H99.9204V6.372H105.344V10.98H106.52L109.4 6.372H115.112L110.888 12.66L115.376 19.5H108.992L106.376 15.132ZM130.63 6.372V16.884C130.63 19.38 129.934 21.252 128.542 22.5C127.166 23.764 125.214 24.396 122.686 24.396C121.39 24.396 120.174 24.252 119.038 23.964C117.918 23.692 116.958 23.292 116.158 22.764L117.982 19.068C118.494 19.452 119.134 19.764 119.902 20.004C120.686 20.244 121.43 20.364 122.134 20.364C123.206 20.364 123.982 20.132 124.462 19.668C124.958 19.204 125.206 18.524 125.206 17.628V17.532C124.262 18.364 123.11 18.78 121.75 18.78C120.086 18.78 118.75 18.276 117.742 17.268C116.734 16.244 116.23 14.708 116.23 12.66V6.372H121.654V11.724C121.654 12.62 121.798 13.26 122.086 13.644C122.374 14.028 122.798 14.22 123.358 14.22C123.886 14.22 124.326 14.012 124.678 13.596C125.03 13.164 125.206 12.492 125.206 11.58V6.372H130.63ZM140.428 6.132C142.668 6.132 144.428 6.74 145.708 7.956C146.988 9.156 147.628 10.82 147.628 12.948C147.628 14.308 147.364 15.5 146.836 16.524C146.308 17.548 145.556 18.34 144.58 18.9C143.62 19.46 142.508 19.74 141.244 19.74C140.556 19.74 139.956 19.652 139.444 19.476C138.932 19.284 138.484 18.988 138.1 18.588V24.156H132.676V12.996C132.676 11.62 132.996 10.412 133.636 9.372C134.276 8.332 135.18 7.532 136.348 6.972C137.516 6.412 138.876 6.132 140.428 6.132ZM140.14 15.516C140.796 15.516 141.316 15.292 141.7 14.844C142.084 14.38 142.276 13.748 142.276 12.948C142.276 12.164 142.084 11.54 141.7 11.076C141.316 10.596 140.796 10.356 140.14 10.356C139.484 10.356 138.964 10.596 138.58 11.076C138.196 11.54 138.004 12.164 138.004 12.948C138.004 13.748 138.196 14.38 138.58 14.844C138.964 15.292 139.484 15.516 140.14 15.516ZM163.702 6.372V19.5H158.542V18.42C157.758 19.3 156.558 19.74 154.942 19.74C153.79 19.74 152.726 19.468 151.75 18.924C150.79 18.364 150.022 17.564 149.446 16.524C148.886 15.484 148.606 14.284 148.606 12.924C148.606 11.564 148.886 10.372 149.446 9.348C150.022 8.308 150.79 7.516 151.75 6.972C152.726 6.412 153.79 6.132 154.942 6.132C156.398 6.132 157.51 6.508 158.278 7.26V6.372H163.702ZM156.238 15.516C156.862 15.516 157.374 15.292 157.774 14.844C158.174 14.38 158.374 13.74 158.374 12.924C158.374 12.108 158.174 11.476 157.774 11.028C157.374 10.58 156.862 10.356 156.238 10.356C155.614 10.356 155.102 10.58 154.702 11.028C154.302 11.476 154.102 12.108 154.102 12.924C154.102 13.74 154.302 14.38 154.702 14.844C155.102 15.292 155.614 15.516 156.238 15.516ZM183.554 6.132C185.138 6.132 186.402 6.62 187.346 7.596C188.306 8.572 188.786 10.044 188.786 12.012V19.5H183.362V12.948C183.362 11.444 182.874 10.692 181.898 10.692C181.386 10.692 180.97 10.884 180.65 11.268C180.346 11.652 180.194 12.26 180.194 13.092V19.5H174.77V12.948C174.77 11.444 174.282 10.692 173.306 10.692C172.794 10.692 172.378 10.884 172.058 11.268C171.754 11.652 171.602 12.26 171.602 13.092V19.5H166.178V6.372H171.338V7.596C172.314 6.62 173.554 6.132 175.058 6.132C175.938 6.132 176.73 6.3 177.434 6.636C178.138 6.956 178.714 7.452 179.162 8.124C179.69 7.484 180.33 6.996 181.082 6.66C181.834 6.308 182.658 6.132 183.554 6.132ZM197.813 19.74C196.357 19.74 195.045 19.452 193.877 18.876C192.725 18.284 191.821 17.476 191.165 16.452C190.509 15.412 190.181 14.236 190.181 12.924C190.181 11.612 190.509 10.444 191.165 9.42C191.821 8.38 192.725 7.572 193.877 6.996C195.045 6.42 196.357 6.132 197.813 6.132C199.285 6.132 200.597 6.42 201.749 6.996C202.917 7.572 203.821 8.38 204.461 9.42C205.117 10.444 205.445 11.612 205.445 12.924C205.445 14.236 205.117 15.412 204.461 16.452C203.821 17.476 202.917 18.284 201.749 18.876C200.597 19.452 199.285 19.74 197.813 19.74ZM197.813 15.516C198.437 15.516 198.949 15.292 199.349 14.844C199.749 14.38 199.949 13.74 199.949 12.924C199.949 12.108 199.749 11.476 199.349 11.028C198.949 10.58 198.437 10.356 197.813 10.356C197.189 10.356 196.677 10.58 196.277 11.028C195.877 11.476 195.677 12.108 195.677 12.924C195.677 13.74 195.877 14.38 196.277 14.844C196.677 15.292 197.189 15.516 197.813 15.516ZM214.444 6.132C216.684 6.132 218.444 6.74 219.724 7.956C221.004 9.156 221.644 10.82 221.644 12.948C221.644 14.308 221.38 15.5 220.852 16.524C220.324 17.548 219.572 18.34 218.596 18.9C217.636 19.46 216.524 19.74 215.26 19.74C214.572 19.74 213.972 19.652 213.46 19.476C212.948 19.284 212.5 18.988 212.116 18.588V24.156H206.692V12.996C206.692 11.62 207.012 10.412 207.652 9.372C208.292 8.332 209.196 7.532 210.364 6.972C211.532 6.412 212.892 6.132 214.444 6.132ZM214.156 15.516C214.812 15.516 215.332 15.292 215.716 14.844C216.1 14.38 216.292 13.748 216.292 12.948C216.292 12.164 216.1 11.54 215.716 11.076C215.332 10.596 214.812 10.356 214.156 10.356C213.5 10.356 212.98 10.596 212.596 11.076C212.212 11.54 212.02 12.164 212.02 12.948C212.02 13.748 212.212 14.38 212.596 14.844C212.98 15.292 213.5 15.516 214.156 15.516Z" fill="#007BFF"/>
</g>
<defs>
<clipPath id="clip0_229_530">
<rect width="222" height="25" fill="white"/>
</clipPath>
</defs>
</svg>
