<svg width="135" height="26" viewBox="0 0 135 26" fill="none" xmlns="http://www.w3.org/2000/svg">
<g clip-path="url(#clip0_226_521)">
<path d="M7.92888 20.8235C6.53688 20.8235 5.17688 20.6715 3.84888 20.3675C2.53688 20.0475 1.45687 19.6235 0.608875 19.0955L2.43288 14.9675C3.23288 15.4315 4.12888 15.8075 5.12088 16.0955C6.11288 16.3675 7.06488 16.5035 7.97688 16.5035C8.76088 16.5035 9.32088 16.4315 9.65688 16.2875C9.99288 16.1275 10.1609 15.8955 10.1609 15.5915C10.1609 15.2395 9.93688 14.9755 9.48888 14.7995C9.05688 14.6235 8.33688 14.4315 7.32888 14.2235C6.03288 13.9515 4.95288 13.6635 4.08888 13.3595C3.22488 13.0395 2.47288 12.5275 1.83288 11.8235C1.19288 11.1035 0.872875 10.1355 0.872875 8.91945C0.872875 7.86345 1.16888 6.90345 1.76088 6.03945C2.35288 5.17545 3.23288 4.49545 4.40088 3.99945C5.58488 3.50345 7.01688 3.25545 8.69688 3.25545C9.84888 3.25545 10.9769 3.38345 12.0809 3.63945C13.2009 3.87945 14.1849 4.23945 15.0329 4.71945L13.3289 8.82345C11.6809 7.99145 10.1209 7.57545 8.64888 7.57545C7.19288 7.57545 6.46487 7.92745 6.46487 8.63145C6.46487 8.96745 6.68088 9.22345 7.11288 9.39945C7.54488 9.55945 8.25688 9.73545 9.24888 9.92745C10.5289 10.1675 11.6089 10.4475 12.4889 10.7675C13.3689 11.0715 14.1289 11.5755 14.7689 12.2795C15.4249 12.9835 15.7529 13.9435 15.7529 15.1595C15.7529 16.2155 15.4569 17.1755 14.8649 18.0395C14.2729 18.8875 13.3849 19.5675 12.2009 20.0795C11.0329 20.5755 9.60888 20.8235 7.92888 20.8235ZM17.2703 7.31145H22.6943V20.4395H17.2703V7.31145ZM19.9823 6.25545C19.0063 6.25545 18.2143 5.99945 17.6063 5.48745C17.0143 4.95945 16.7183 4.29545 16.7183 3.49545C16.7183 2.69545 17.0143 2.03945 17.6063 1.52745C18.2143 0.999452 19.0063 0.735452 19.9823 0.735452C20.9743 0.735452 21.7663 0.983452 22.3583 1.47945C22.9503 1.97545 23.2463 2.61545 23.2463 3.39945C23.2463 4.23145 22.9503 4.91945 22.3583 5.46345C21.7663 5.99145 20.9743 6.25545 19.9823 6.25545ZM39.7624 7.31145V17.8235C39.7624 20.3195 39.0664 22.1915 37.6744 23.4395C36.2984 24.7035 34.3304 25.3355 31.7704 25.3355C30.4584 25.3355 29.2344 25.1915 28.0984 24.9035C26.9624 24.6315 25.9944 24.2315 25.1944 23.7035L27.0184 20.0075C27.5304 20.3915 28.1784 20.7035 28.9624 20.9435C29.7464 21.1835 30.4984 21.3035 31.2184 21.3035C32.3064 21.3035 33.0984 21.0715 33.5944 20.6075C34.0904 20.1435 34.3384 19.4635 34.3384 18.5675V18.3275C33.5224 19.2555 32.3144 19.7195 30.7144 19.7195C29.5944 19.7195 28.5464 19.4635 27.5704 18.9515C26.6104 18.4235 25.8424 17.6795 25.2664 16.7195C24.6904 15.7435 24.4024 14.6315 24.4024 13.3835C24.4024 12.1355 24.6904 11.0315 25.2664 10.0715C25.8424 9.11145 26.6104 8.37545 27.5704 7.86345C28.5464 7.33545 29.5944 7.07145 30.7144 7.07145C32.5064 7.07145 33.8024 7.64745 34.6024 8.79945V7.31145H39.7624ZM32.1544 15.4955C32.7944 15.4955 33.3224 15.3035 33.7384 14.9195C34.1704 14.5195 34.3864 14.0075 34.3864 13.3835C34.3864 12.7595 34.1704 12.2555 33.7384 11.8715C33.3224 11.4875 32.7944 11.2955 32.1544 11.2955C31.4984 11.2955 30.9544 11.4875 30.5224 11.8715C30.1064 12.2555 29.8984 12.7595 29.8984 13.3835C29.8984 14.0075 30.1144 14.5195 30.5464 14.9195C30.9784 15.3035 31.5144 15.4955 32.1544 15.4955ZM51.2809 7.07145C52.8969 7.07145 54.1929 7.55945 55.1689 8.53545C56.1609 9.51145 56.6569 10.9835 56.6569 12.9515V20.4395H51.2329V13.8875C51.2329 12.3835 50.6969 11.6315 49.6249 11.6315C49.0169 11.6315 48.5209 11.8475 48.1369 12.2795C47.7689 12.6955 47.5849 13.3595 47.5849 14.2715V20.4395H42.1609V7.31145H47.3209V8.60745C47.8329 8.09545 48.4249 7.71145 49.0969 7.45545C49.7689 7.19945 50.4969 7.07145 51.2809 7.07145ZM65.4445 20.8235C64.0525 20.8235 62.6925 20.6715 61.3645 20.3675C60.0525 20.0475 58.9725 19.6235 58.1245 19.0955L59.9485 14.9675C60.7485 15.4315 61.6445 15.8075 62.6365 16.0955C63.6285 16.3675 64.5805 16.5035 65.4925 16.5035C66.2765 16.5035 66.8365 16.4315 67.1725 16.2875C67.5085 16.1275 67.6765 15.8955 67.6765 15.5915C67.6765 15.2395 67.4525 14.9755 67.0045 14.7995C66.5725 14.6235 65.8525 14.4315 64.8445 14.2235C63.5485 13.9515 62.4685 13.6635 61.6045 13.3595C60.7405 13.0395 59.9885 12.5275 59.3485 11.8235C58.7085 11.1035 58.3885 10.1355 58.3885 8.91945C58.3885 7.86345 58.6845 6.90345 59.2765 6.03945C59.8685 5.17545 60.7485 4.49545 61.9165 3.99945C63.1005 3.50345 64.5325 3.25545 66.2125 3.25545C67.3645 3.25545 68.4925 3.38345 69.5965 3.63945C70.7165 3.87945 71.7005 4.23945 72.5485 4.71945L70.8445 8.82345C69.1965 7.99145 67.6365 7.57545 66.1645 7.57545C64.7085 7.57545 63.9805 7.92745 63.9805 8.63145C63.9805 8.96745 64.1965 9.22345 64.6285 9.39945C65.0605 9.55945 65.7725 9.73545 66.7645 9.92745C68.0445 10.1675 69.1245 10.4475 70.0045 10.7675C70.8845 11.0715 71.6445 11.5755 72.2845 12.2795C72.9405 12.9835 73.2685 13.9435 73.2685 15.1595C73.2685 16.2155 72.9725 17.1755 72.3805 18.0395C71.7885 18.8875 70.9005 19.5675 69.7165 20.0795C68.5485 20.5755 67.1245 20.8235 65.4445 20.8235ZM82.2019 16.6715C82.7779 16.6715 83.2579 16.5995 83.6419 16.4555C84.0419 16.3115 84.4739 16.0635 84.9379 15.7115L87.7699 18.5675C86.4579 19.9755 84.5459 20.6795 82.0339 20.6795C80.4499 20.6795 79.0579 20.3915 77.8579 19.8155C76.6579 19.2235 75.7299 18.4075 75.0739 17.3675C74.4179 16.3275 74.0899 15.1595 74.0899 13.8635C74.0899 12.5515 74.4179 11.3835 75.0739 10.3595C75.7299 9.31945 76.6259 8.51145 77.7619 7.93545C78.9139 7.35945 80.2019 7.07145 81.6259 7.07145C82.9219 7.07145 84.1139 7.33545 85.2019 7.86345C86.2899 8.37545 87.1539 9.14345 87.7939 10.1675C88.4339 11.1755 88.7539 12.3835 88.7539 13.7915L79.7779 15.5195C80.1779 16.2875 80.9859 16.6715 82.2019 16.6715ZM81.6499 10.7675C81.0259 10.7675 80.5139 10.9515 80.1139 11.3195C79.7299 11.6875 79.4979 12.2315 79.4179 12.9515L83.6179 12.1355C83.4739 11.7195 83.2259 11.3915 82.8739 11.1515C82.5379 10.8955 82.1299 10.7675 81.6499 10.7675ZM99.5856 7.07145C101.202 7.07145 102.498 7.55945 103.474 8.53545C104.466 9.51145 104.962 10.9835 104.962 12.9515V20.4395H99.5376V13.8875C99.5376 12.3835 99.0016 11.6315 97.9296 11.6315C97.3216 11.6315 96.8256 11.8475 96.4416 12.2795C96.0736 12.6955 95.8896 13.3595 95.8896 14.2715V20.4395H90.4656V7.31145H95.6256V8.60745C96.1376 8.09545 96.7296 7.71145 97.4016 7.45545C98.0736 7.19945 98.8016 7.07145 99.5856 7.07145ZM112.453 20.6795C111.333 20.6795 110.229 20.5595 109.141 20.3195C108.053 20.0795 107.173 19.7675 106.501 19.3835L107.989 15.8075C108.597 16.1755 109.317 16.4635 110.149 16.6715C110.981 16.8795 111.789 16.9835 112.573 16.9835C113.197 16.9835 113.629 16.9355 113.869 16.8395C114.125 16.7275 114.253 16.5675 114.253 16.3595C114.253 16.1515 114.093 16.0075 113.773 15.9275C113.469 15.8475 112.965 15.7675 112.261 15.6875C111.189 15.5595 110.277 15.3995 109.525 15.2075C108.773 14.9995 108.109 14.6075 107.533 14.0315C106.973 13.4555 106.693 12.6315 106.693 11.5595C106.693 10.7115 106.949 9.95145 107.461 9.27945C107.973 8.60745 108.733 8.07145 109.741 7.67145C110.765 7.27145 111.989 7.07145 113.413 7.07145C114.405 7.07145 115.373 7.16745 116.317 7.35945C117.277 7.53545 118.093 7.79945 118.765 8.15145L117.277 11.7275C116.125 11.0875 114.861 10.7675 113.485 10.7675C112.301 10.7675 111.709 10.9755 111.709 11.3915C111.709 11.5995 111.869 11.7515 112.189 11.8475C112.509 11.9275 113.013 12.0075 113.701 12.0875C114.773 12.2155 115.677 12.3835 116.413 12.5915C117.165 12.7995 117.821 13.1915 118.381 13.7675C118.957 14.3435 119.245 15.1675 119.245 16.2395C119.245 17.0555 118.989 17.7995 118.477 18.4715C117.965 19.1435 117.197 19.6795 116.173 20.0795C115.149 20.4795 113.909 20.6795 112.453 20.6795ZM128.304 16.6715C128.88 16.6715 129.36 16.5995 129.744 16.4555C130.144 16.3115 130.576 16.0635 131.04 15.7115L133.872 18.5675C132.56 19.9755 130.648 20.6795 128.136 20.6795C126.552 20.6795 125.16 20.3915 123.96 19.8155C122.76 19.2235 121.832 18.4075 121.176 17.3675C120.52 16.3275 120.192 15.1595 120.192 13.8635C120.192 12.5515 120.52 11.3835 121.176 10.3595C121.832 9.31945 122.728 8.51145 123.864 7.93545C125.016 7.35945 126.304 7.07145 127.728 7.07145C129.024 7.07145 130.216 7.33545 131.304 7.86345C132.392 8.37545 133.256 9.14345 133.896 10.1675C134.536 11.1755 134.856 12.3835 134.856 13.7915L125.88 15.5195C126.28 16.2875 127.088 16.6715 128.304 16.6715ZM127.752 10.7675C127.128 10.7675 126.616 10.9515 126.216 11.3195C125.832 11.6875 125.6 12.2315 125.52 12.9515L129.72 12.1355C129.576 11.7195 129.328 11.3915 128.976 11.1515C128.64 10.8955 128.232 10.7675 127.752 10.7675Z" fill="#004A99"/>
<path d="M7.632 20.384C6.24 20.384 4.88 20.232 3.552 19.928C2.24 19.608 1.16 19.184 0.312 18.656L2.136 14.528C2.936 14.992 3.832 15.368 4.824 15.656C5.816 15.928 6.768 16.064 7.68 16.064C8.464 16.064 9.024 15.992 9.36 15.848C9.696 15.688 9.864 15.456 9.864 15.152C9.864 14.8 9.64 14.536 9.192 14.36C8.76 14.184 8.04 13.992 7.032 13.784C5.736 13.512 4.656 13.224 3.792 12.92C2.928 12.6 2.176 12.088 1.536 11.384C0.896 10.664 0.576 9.696 0.576 8.48C0.576 7.424 0.872 6.464 1.464 5.6C2.056 4.736 2.936 4.056 4.104 3.56C5.288 3.064 6.72 2.816 8.4 2.816C9.552 2.816 10.68 2.944 11.784 3.2C12.904 3.44 13.888 3.8 14.736 4.28L13.032 8.384C11.384 7.552 9.824 7.136 8.352 7.136C6.896 7.136 6.168 7.488 6.168 8.192C6.168 8.528 6.384 8.784 6.816 8.96C7.248 9.12 7.96 9.296 8.952 9.488C10.232 9.728 11.312 10.008 12.192 10.328C13.072 10.632 13.832 11.136 14.472 11.84C15.128 12.544 15.456 13.504 15.456 14.72C15.456 15.776 15.16 16.736 14.568 17.6C13.976 18.448 13.088 19.128 11.904 19.64C10.736 20.136 9.312 20.384 7.632 20.384ZM16.9734 6.872H22.3974V20H16.9734V6.872ZM19.6854 5.816C18.7094 5.816 17.9174 5.56 17.3094 5.048C16.7174 4.52 16.4214 3.856 16.4214 3.056C16.4214 2.256 16.7174 1.6 17.3094 1.088C17.9174 0.559999 18.7094 0.295999 19.6854 0.295999C20.6774 0.295999 21.4694 0.543999 22.0614 1.04C22.6534 1.536 22.9494 2.176 22.9494 2.96C22.9494 3.792 22.6534 4.48 22.0614 5.024C21.4694 5.552 20.6774 5.816 19.6854 5.816ZM39.4656 6.872V17.384C39.4656 19.88 38.7696 21.752 37.3776 23C36.0016 24.264 34.0336 24.896 31.4736 24.896C30.1616 24.896 28.9376 24.752 27.8016 24.464C26.6656 24.192 25.6976 23.792 24.8976 23.264L26.7216 19.568C27.2336 19.952 27.8816 20.264 28.6656 20.504C29.4496 20.744 30.2016 20.864 30.9216 20.864C32.0096 20.864 32.8016 20.632 33.2976 20.168C33.7936 19.704 34.0416 19.024 34.0416 18.128V17.888C33.2256 18.816 32.0176 19.28 30.4176 19.28C29.2976 19.28 28.2496 19.024 27.2736 18.512C26.3136 17.984 25.5456 17.24 24.9696 16.28C24.3936 15.304 24.1056 14.192 24.1056 12.944C24.1056 11.696 24.3936 10.592 24.9696 9.632C25.5456 8.672 26.3136 7.936 27.2736 7.424C28.2496 6.896 29.2976 6.632 30.4176 6.632C32.2096 6.632 33.5056 7.208 34.3056 8.36V6.872H39.4656ZM31.8576 15.056C32.4976 15.056 33.0256 14.864 33.4416 14.48C33.8736 14.08 34.0896 13.568 34.0896 12.944C34.0896 12.32 33.8736 11.816 33.4416 11.432C33.0256 11.048 32.4976 10.856 31.8576 10.856C31.2016 10.856 30.6576 11.048 30.2256 11.432C29.8096 11.816 29.6016 12.32 29.6016 12.944C29.6016 13.568 29.8176 14.08 30.2496 14.48C30.6816 14.864 31.2176 15.056 31.8576 15.056ZM50.9841 6.632C52.6001 6.632 53.8961 7.12 54.8721 8.096C55.8641 9.072 56.3601 10.544 56.3601 12.512V20H50.9361V13.448C50.9361 11.944 50.4001 11.192 49.3281 11.192C48.7201 11.192 48.2241 11.408 47.8401 11.84C47.4721 12.256 47.2881 12.92 47.2881 13.832V20H41.8641V6.872H47.0241V8.168C47.5361 7.656 48.1281 7.272 48.8001 7.016C49.4721 6.76 50.2001 6.632 50.9841 6.632ZM65.1476 20.384C63.7556 20.384 62.3956 20.232 61.0676 19.928C59.7556 19.608 58.6756 19.184 57.8276 18.656L59.6516 14.528C60.4516 14.992 61.3476 15.368 62.3396 15.656C63.3316 15.928 64.2836 16.064 65.1956 16.064C65.9796 16.064 66.5396 15.992 66.8756 15.848C67.2116 15.688 67.3796 15.456 67.3796 15.152C67.3796 14.8 67.1556 14.536 66.7076 14.36C66.2756 14.184 65.5556 13.992 64.5476 13.784C63.2516 13.512 62.1716 13.224 61.3076 12.92C60.4436 12.6 59.6916 12.088 59.0516 11.384C58.4116 10.664 58.0916 9.696 58.0916 8.48C58.0916 7.424 58.3876 6.464 58.9796 5.6C59.5716 4.736 60.4516 4.056 61.6196 3.56C62.8036 3.064 64.2356 2.816 65.9156 2.816C67.0676 2.816 68.1956 2.944 69.2996 3.2C70.4196 3.44 71.4036 3.8 72.2516 4.28L70.5476 8.384C68.8996 7.552 67.3396 7.136 65.8676 7.136C64.4116 7.136 63.6836 7.488 63.6836 8.192C63.6836 8.528 63.8996 8.784 64.3316 8.96C64.7636 9.12 65.4756 9.296 66.4676 9.488C67.7476 9.728 68.8276 10.008 69.7076 10.328C70.5876 10.632 71.3476 11.136 71.9876 11.84C72.6436 12.544 72.9716 13.504 72.9716 14.72C72.9716 15.776 72.6756 16.736 72.0836 17.6C71.4916 18.448 70.6036 19.128 69.4196 19.64C68.2516 20.136 66.8276 20.384 65.1476 20.384ZM81.9051 16.232C82.4811 16.232 82.9611 16.16 83.3451 16.016C83.7451 15.872 84.1771 15.624 84.6411 15.272L87.4731 18.128C86.1611 19.536 84.2491 20.24 81.7371 20.24C80.1531 20.24 78.7611 19.952 77.5611 19.376C76.3611 18.784 75.4331 17.968 74.7771 16.928C74.1211 15.888 73.7931 14.72 73.7931 13.424C73.7931 12.112 74.1211 10.944 74.7771 9.92C75.4331 8.88 76.3291 8.072 77.4651 7.496C78.6171 6.92 79.9051 6.632 81.3291 6.632C82.6251 6.632 83.8171 6.896 84.9051 7.424C85.9931 7.936 86.8571 8.704 87.4971 9.728C88.1371 10.736 88.4571 11.944 88.4571 13.352L79.4811 15.08C79.8811 15.848 80.6891 16.232 81.9051 16.232ZM81.3531 10.328C80.7291 10.328 80.2171 10.512 79.8171 10.88C79.4331 11.248 79.2011 11.792 79.1211 12.512L83.3211 11.696C83.1771 11.28 82.9291 10.952 82.5771 10.712C82.2411 10.456 81.8331 10.328 81.3531 10.328ZM99.2888 6.632C100.905 6.632 102.201 7.12 103.177 8.096C104.169 9.072 104.665 10.544 104.665 12.512V20H99.2408V13.448C99.2408 11.944 98.7048 11.192 97.6328 11.192C97.0248 11.192 96.5288 11.408 96.1448 11.84C95.7768 12.256 95.5928 12.92 95.5928 13.832V20H90.1688V6.872H95.3288V8.168C95.8408 7.656 96.4328 7.272 97.1048 7.016C97.7768 6.76 98.5048 6.632 99.2888 6.632ZM112.156 20.24C111.036 20.24 109.932 20.12 108.844 19.88C107.756 19.64 106.876 19.328 106.204 18.944L107.692 15.368C108.3 15.736 109.02 16.024 109.852 16.232C110.684 16.44 111.492 16.544 112.276 16.544C112.9 16.544 113.332 16.496 113.572 16.4C113.828 16.288 113.956 16.128 113.956 15.92C113.956 15.712 113.796 15.568 113.476 15.488C113.172 15.408 112.668 15.328 111.964 15.248C110.892 15.12 109.98 14.96 109.228 14.768C108.476 14.56 107.812 14.168 107.236 13.592C106.676 13.016 106.396 12.192 106.396 11.12C106.396 10.272 106.652 9.512 107.164 8.84C107.676 8.168 108.436 7.632 109.444 7.232C110.468 6.832 111.692 6.632 113.116 6.632C114.108 6.632 115.076 6.728 116.02 6.92C116.98 7.096 117.796 7.36 118.468 7.712L116.98 11.288C115.828 10.648 114.564 10.328 113.188 10.328C112.004 10.328 111.412 10.536 111.412 10.952C111.412 11.16 111.572 11.312 111.892 11.408C112.212 11.488 112.716 11.568 113.404 11.648C114.476 11.776 115.38 11.944 116.116 12.152C116.868 12.36 117.524 12.752 118.084 13.328C118.66 13.904 118.948 14.728 118.948 15.8C118.948 16.616 118.692 17.36 118.18 18.032C117.668 18.704 116.9 19.24 115.876 19.64C114.852 20.04 113.612 20.24 112.156 20.24ZM128.007 16.232C128.583 16.232 129.063 16.16 129.447 16.016C129.847 15.872 130.279 15.624 130.743 15.272L133.575 18.128C132.263 19.536 130.351 20.24 127.839 20.24C126.255 20.24 124.863 19.952 123.663 19.376C122.463 18.784 121.535 17.968 120.879 16.928C120.223 15.888 119.895 14.72 119.895 13.424C119.895 12.112 120.223 10.944 120.879 9.92C121.535 8.88 122.431 8.072 123.567 7.496C124.719 6.92 126.007 6.632 127.431 6.632C128.727 6.632 129.919 6.896 131.007 7.424C132.095 7.936 132.959 8.704 133.599 9.728C134.239 10.736 134.559 11.944 134.559 13.352L125.583 15.08C125.983 15.848 126.791 16.232 128.007 16.232ZM127.455 10.328C126.831 10.328 126.319 10.512 125.919 10.88C125.535 11.248 125.303 11.792 125.223 12.512L129.423 11.696C129.279 11.28 129.031 10.952 128.679 10.712C128.343 10.456 127.935 10.328 127.455 10.328Z" fill="#007BFF"/>
</g>
<defs>
<clipPath id="clip0_226_521">
<rect width="135" height="26" fill="white"/>
</clipPath>
</defs>
</svg>
