<svg width="16" height="16" viewBox="0 0 16 16" fill="none" xmlns="http://www.w3.org/2000/svg">
<path d="M3 8.47656L1 7.41406V10.5781C1 10.7135 0.950521 10.8307 0.851562 10.9297C0.752604 11.0286 0.635417 11.0781 0.5 11.0781C0.364583 11.0781 0.247396 11.0286 0.148438 10.9297C0.0494792 10.8307 0 10.7135 0 10.5781V6.57812C0 6.48438 0.0234375 6.39844 0.0703125 6.32031C0.117188 6.24219 0.182292 6.18229 0.265625 6.14062L6.82031 2.64062C7.0026 2.54688 7.19401 2.47396 7.39453 2.42188C7.59505 2.36979 7.79688 2.34375 8 2.34375C8.42188 2.34375 8.8151 2.44271 9.17969 2.64062L15.7344 6.14062C15.8177 6.18229 15.8828 6.24219 15.9297 6.32031C15.9766 6.39844 16 6.48438 16 6.57812C16 6.67188 15.9766 6.75781 15.9297 6.83594C15.8828 6.91406 15.8177 6.97396 15.7344 7.01562L13 8.47656V11.5781C13 11.651 12.987 11.7135 12.9609 11.7656C12.9349 11.8177 12.8984 11.8724 12.8516 11.9297C12.7422 12.0547 12.6107 12.1797 12.457 12.3047C12.3034 12.4297 12.1419 12.5521 11.9727 12.6719C11.8034 12.7917 11.6328 12.9023 11.4609 13.0039C11.2891 13.1055 11.1302 13.1953 10.9844 13.2734C10.526 13.5182 10.0456 13.7135 9.54297 13.8594C9.04036 14.0052 8.52604 14.0781 8 14.0781C7.47396 14.0781 6.95964 14.0052 6.45703 13.8594C5.95443 13.7135 5.47396 13.5182 5.01562 13.2734C4.86979 13.1953 4.71094 13.1055 4.53906 13.0039C4.36719 12.9023 4.19661 12.7917 4.02734 12.6719C3.85807 12.5521 3.69661 12.4297 3.54297 12.3047C3.38932 12.1797 3.25781 12.0547 3.14844 11.9297C3.10156 11.8724 3.0651 11.8177 3.03906 11.7656C3.01302 11.7135 3 11.651 3 11.5781V8.47656ZM8 9.80469C8.24479 9.80469 8.47917 9.7474 8.70312 9.63281L14.4375 6.57812L8.70312 3.52344C8.47917 3.40365 8.24479 3.34375 8 3.34375C7.75521 3.34375 7.52083 3.40365 7.29688 3.52344L1.5625 6.57812L7.29688 9.63281C7.52083 9.7474 7.75521 9.80469 8 9.80469ZM12 11.3672V9.00781L9.17969 10.5156C8.9974 10.6146 8.80729 10.6875 8.60938 10.7344C8.41146 10.7812 8.20833 10.8047 8 10.8047C7.79688 10.8047 7.59505 10.7812 7.39453 10.7344C7.19401 10.6875 7.0026 10.6146 6.82031 10.5156L4 9.00781V11.3672C4.25521 11.6016 4.54167 11.8216 4.85938 12.0273C5.17708 12.2331 5.50911 12.4141 5.85547 12.5703C6.20182 12.7266 6.55729 12.8503 6.92188 12.9414C7.28646 13.0326 7.64583 13.0781 8 13.0781C8.34896 13.0781 8.70703 13.0326 9.07422 12.9414C9.44141 12.8503 9.79818 12.7266 10.1445 12.5703C10.4909 12.4141 10.8229 12.2331 11.1406 12.0273C11.4583 11.8216 11.7448 11.6016 12 11.3672Z" fill="#007BFF"/>
</svg>
