<svg width="16" height="16" viewBox="0 0 16 16" fill="none" xmlns="http://www.w3.org/2000/svg">
<g clip-path="url(#clip0_50_909)">
<path d="M7.724 14.669C6.68 14.669 5.66 14.555 4.664 14.327C3.68 14.087 2.87 13.769 2.234 13.373L3.602 10.277C4.202 10.625 4.874 10.907 5.618 11.123C6.362 11.327 7.076 11.429 7.76 11.429C8.348 11.429 8.768 11.375 9.02 11.267C9.272 11.147 9.398 10.973 9.398 10.745C9.398 10.481 9.23 10.283 8.894 10.151C8.57 10.019 8.03 9.87498 7.274 9.71898C6.302 9.51498 5.492 9.29898 4.844 9.07098C4.196 8.83098 3.632 8.44698 3.152 7.91898C2.672 7.37898 2.432 6.65298 2.432 5.74098C2.432 4.94898 2.654 4.22898 3.098 3.58098C3.542 2.93298 4.202 2.42298 5.078 2.05098C5.966 1.67898 7.04 1.49298 8.3 1.49298C9.164 1.49298 10.01 1.58898 10.838 1.78098C11.678 1.96098 12.416 2.23098 13.052 2.59098L11.774 5.66898C10.538 5.04498 9.368 4.73298 8.264 4.73298C7.172 4.73298 6.626 4.99698 6.626 5.52498C6.626 5.77698 6.788 5.96898 7.112 6.10098C7.436 6.22098 7.97 6.35298 8.714 6.49698C9.674 6.67698 10.484 6.88698 11.144 7.12698C11.804 7.35498 12.374 7.73298 12.854 8.26098C13.346 8.78898 13.592 9.50898 13.592 10.421C13.592 11.213 13.37 11.933 12.926 12.581C12.482 13.217 11.816 13.727 10.928 14.111C10.052 14.483 8.984 14.669 7.724 14.669Z" fill="#004A99"/>
<path d="M7.724 14.288C6.68 14.288 5.66 14.174 4.664 13.946C3.68 13.706 2.87 13.388 2.234 12.992L3.602 9.896C4.202 10.244 4.874 10.526 5.618 10.742C6.362 10.946 7.076 11.048 7.76 11.048C8.348 11.048 8.768 10.994 9.02 10.886C9.272 10.766 9.398 10.592 9.398 10.364C9.398 10.1 9.23 9.902 8.894 9.77C8.57 9.638 8.03 9.494 7.274 9.338C6.302 9.134 5.492 8.918 4.844 8.69C4.196 8.45 3.632 8.066 3.152 7.538C2.672 6.998 2.432 6.272 2.432 5.36C2.432 4.568 2.654 3.848 3.098 3.2C3.542 2.552 4.202 2.042 5.078 1.67C5.966 1.298 7.04 1.112 8.3 1.112C9.164 1.112 10.01 1.208 10.838 1.4C11.678 1.58 12.416 1.85 13.052 2.21L11.774 5.288C10.538 4.664 9.368 4.352 8.264 4.352C7.172 4.352 6.626 4.616 6.626 5.144C6.626 5.396 6.788 5.588 7.112 5.72C7.436 5.84 7.97 5.972 8.714 6.116C9.674 6.296 10.484 6.506 11.144 6.746C11.804 6.974 12.374 7.352 12.854 7.88C13.346 8.408 13.592 9.128 13.592 10.04C13.592 10.832 13.37 11.552 12.926 12.2C12.482 12.836 11.816 13.346 10.928 13.73C10.052 14.102 8.984 14.288 7.724 14.288Z" fill="#007BFF"/>
</g>
<defs>
<clipPath id="clip0_50_909">
<rect width="16" height="16" fill="white"/>
</clipPath>
</defs>
</svg>
