<svg width="28" height="28" viewBox="0 0 28 28" fill="none" xmlns="http://www.w3.org/2000/svg">
<g clip-path="url(#clip0_229_534)">
<path d="M17.928 16.8279H16.464V22.8999H10.944V16.8279H9.432L6.648 22.8999H0.144L4.656 14.0679L0.384 6.0999H6.288L9.288 12.3639H10.944V6.0999H16.464V12.3639H18.024L21.072 6.0999H26.976L22.728 14.0679L27.216 22.8999H20.712L17.928 16.8279Z" fill="#004A99"/>
<path d="M17.928 16.428H16.464V22.5H10.944V16.428H9.432L6.648 22.5H0.144L4.656 13.668L0.384 5.7H6.288L9.288 11.964H10.944V5.7H16.464V11.964H18.024L21.072 5.7H26.976L22.728 13.668L27.216 22.5H20.712L17.928 16.428Z" fill="#007BFF"/>
</g>
<defs>
<clipPath id="clip0_229_534">
<rect width="28" height="28" fill="white"/>
</clipPath>
</defs>
</svg>
