<svg width="16" height="16" viewBox="0 0 16 16" fill="none" xmlns="http://www.w3.org/2000/svg">
<g clip-path="url(#clip0_181_107)">
<path d="M14.9375 9.85156L15.8906 10.1484L15.787 10.471L15.6714 10.7864L15.5438 11.0945L15.4043 11.3955L15.2528 11.6893L15.0894 11.9758L14.9139 12.2552L14.7266 12.5273L14.323 13.0457L13.8857 13.5264L13.4148 13.9695L12.9102 14.375L12.3755 14.74L11.8145 15.0615L11.2271 15.3396L10.6133 15.5742L10.2982 15.674L9.97974 15.7605L9.65802 15.8337L9.33301 15.8936L9.0047 15.9401L8.6731 15.9734L8.3382 15.9933L8 16L7.46826 15.9834L6.94336 15.9336L6.42529 15.8506L5.91406 15.7344L5.41333 15.5867L4.92676 15.4092L4.45435 15.2019L3.99609 14.9648L3.55347 14.6992L3.12793 14.4062L2.71948 14.0859L2.32812 13.7383L1.95801 13.365L1.61328 12.9678L1.29395 12.5466L1 12.1016V14H0V10H4V11H1.53125L1.77563 11.446L2.04785 11.8701L2.3479 12.2722L2.67578 12.6523L3.02759 13.0078L3.39941 13.3359L3.79126 13.6367L4.20312 13.9102L4.63257 14.1553L5.07715 14.3711L5.53687 14.5576L6.01172 14.7148L6.4978 14.8396L6.99121 14.9287L7.49194 14.9822L8 15L8.59546 14.9768L9.17871 14.9072L9.74976 14.7913L10.3086 14.6289L10.8491 14.4243L11.3652 14.1816L11.8569 13.9009L12.3242 13.582L12.7646 13.2271L13.1758 12.8379L13.5576 12.4146L13.9102 11.957L14.2278 11.4695L14.5049 10.9561L14.7415 10.4167L14.9375 9.85156ZM8 0L8.53174 0.0166016L9.05664 0.0664064L9.57471 0.149414L10.0859 0.265625L10.5867 0.41333L11.0732 0.590821L11.5457 0.798096L12.0039 1.03516L12.4465 1.30078L12.8721 1.59375L13.2805 1.91406L13.6719 2.26172L14.042 2.63501L14.3867 3.03223L14.7061 3.45337L15 3.89844V2H16V6H12V5H14.4688L14.2244 4.55396L13.9521 4.12988L13.6521 3.72778L13.3242 3.34766L12.9724 2.99219L12.6006 2.66406L12.2087 2.36328L11.7969 2.08984L11.3674 1.84473L10.9229 1.62891L10.4631 1.44238L9.98828 1.28516L9.5022 1.1604L9.00879 1.07129L8.50806 1.01782L8 1L7.40454 1.02319L6.82129 1.09277L6.25024 1.20874L5.69141 1.37109L5.15088 1.57568L4.63477 1.81836L4.14307 2.09912L3.67578 2.41797L3.23535 2.77295L2.82422 3.16211L2.44238 3.58545L2.08984 4.04297L1.77222 4.53052L1.49512 5.04395L1.25854 5.58325L1.0625 6.14844L0.109375 5.85156L0.213013 5.53076L0.328613 5.2168L0.456177 4.90967L0.595703 4.60938L0.747192 4.31592L0.910645 4.0293L1.08606 3.74951L1.27344 3.47656L1.677 2.95654L2.11426 2.47461L2.58521 2.03076L3.08984 1.625L3.62451 1.26001L4.18555 0.938477L4.77295 0.660401L5.38672 0.425781L5.70184 0.325989L6.02026 0.239502L6.34198 0.166321L6.66699 0.106446L6.9953 0.0598757L7.3269 0.0266114L7.6618 0.00665286L8 0Z" fill="#007BFF"/>
</g>
<defs>
<clipPath id="clip0_181_107">
<rect width="16" height="16" fill="white"/>
</clipPath>
</defs>
</svg>
